<svg width="192" height="192" viewBox="0 0 192 192" fill="none" xmlns="http://www.w3.org/2000/svg">
  <circle cx="96" cy="96" r="96" fill="#F7931A"/>
  <path d="M96 163.2C133.113 163.2 163.2 133.113 163.2 96C163.2 58.887 133.113 28.8 96 28.8C58.887 28.8 28.8 58.887 28.8 96C28.8 133.113 58.887 163.2 96 163.2Z" fill="#F7931A" stroke="white" stroke-width="3.84"/>
  <path d="M125.76 87.36C123.84 73.92 111.36 70.08 96 70.08V61.44H86.4V70.08H76.8V61.44H67.2V70.08H48V80.64H57.6C60.864 80.64 61.44 81.216 61.44 84.48V108.48C61.44 112.32 58.944 112.32 57.6 112.32H48V122.88H67.2V130.56H76.8V122.88H86.4V130.56H96V122.88C114.24 122.88 127.68 117.12 125.76 87.36ZM76.8 80.64H96C102.144 80.64 111.36 81.984 111.36 89.28C111.36 96.576 102.144 98.88 96 98.88H76.8V80.64ZM76.8 108.48V98.88H96C103.824 98.88 115.2 101.184 115.2 108.48C115.2 115.776 103.824 118.08 96 118.08H76.8V108.48Z" fill="white"/>
  <path d="M96 153.6C127.611 153.6 153.6 127.611 153.6 96C153.6 64.389 127.611 38.4 96 38.4C64.389 38.4 38.4 64.389 38.4 96C38.4 127.611 64.389 153.6 96 153.6Z" stroke="white" stroke-width="3.84"/>
  <path d="M53.76 115.2L73.92 84.48M73.92 84.48L92.16 99.84M73.92 84.48L67.2 76.8" stroke="white" stroke-width="3.84" stroke-linecap="round" stroke-linejoin="round"/>
  <path d="M115.2 111.36L134.4 80.64M134.4 80.64L115.2 65.28M134.4 80.64L140.16 72.96" stroke="white" stroke-width="3.84" stroke-linecap="round" stroke-linejoin="round"/>
</svg> 