<svg width="512" height="512" viewBox="0 0 512 512" fill="none" xmlns="http://www.w3.org/2000/svg">
  <circle cx="256" cy="256" r="256" fill="#F7931A"/>
  <path d="M256 435.2C354.969 435.2 435.2 354.969 435.2 256C435.2 157.031 354.969 76.8 256 76.8C157.031 76.8 76.8 157.031 76.8 256C76.8 354.969 157.031 435.2 256 435.2Z" fill="#F7931A" stroke="white" stroke-width="10.24"/>
  <path d="M335.36 232.96C330.24 196.48 296.96 186.88 256 186.88V163.84H230.4V186.88H204.8V163.84H179.2V186.88H128V215.04H153.6C162.304 215.04 163.84 216.576 163.84 225.28V289.28C163.84 299.52 157.184 299.52 153.6 299.52H128V327.68H179.2V348.16H204.8V327.68H230.4V348.16H256V327.68C304.64 327.68 340.48 312.32 335.36 232.96ZM204.8 215.04H256C272.384 215.04 296.96 218.624 296.96 238.08C296.96 257.536 272.384 263.68 256 263.68H204.8V215.04ZM204.8 289.28V263.68H256C276.864 263.68 307.2 269.824 307.2 289.28C307.2 308.736 276.864 314.88 256 314.88H204.8V289.28Z" fill="white"/>
  <path d="M256 409.6C340.297 409.6 409.6 340.297 409.6 256C409.6 171.703 340.297 102.4 256 102.4C171.703 102.4 102.4 171.703 102.4 256C102.4 340.297 171.703 409.6 256 409.6Z" stroke="white" stroke-width="10.24"/>
  <path d="M143.36 307.2L197.12 225.28M197.12 225.28L245.76 266.24M197.12 225.28L179.2 204.8" stroke="white" stroke-width="10.24" stroke-linecap="round" stroke-linejoin="round"/>
  <path d="M307.2 296.96L358.4 215.04M358.4 215.04L307.2 174.08M358.4 215.04L373.76 194.56" stroke="white" stroke-width="10.24" stroke-linecap="round" stroke-linejoin="round"/>
</svg> 